<?xml version="1.0" standalone="no"?>
<!DOCTYPE svg PUBLIC "-//W3C//DTD SVG 20010904//EN"
 "http://www.w3.org/TR/2001/REC-SVG-20010904/DTD/svg10.dtd">
<svg version="1.0" xmlns="http://www.w3.org/2000/svg"
 width="2300.000000pt" height="2300.000000pt" viewBox="0 0 2300.000000 2300.000000"
 preserveAspectRatio="xMidYMid meet">
<metadata>
Created by potrace 1.14, written by Peter Selinger 2001-2017
</metadata>
<g transform="translate(0.000000,2300.000000) scale(0.100000,-0.100000)"
fill="#000000" stroke="none">
<path d="M11570 21256 c-19 -13 -38 -22 -42 -19 -5 2 -8 -1 -8 -6 0 -6 -5 -11
-12 -11 -6 0 -25 -10 -42 -23 -17 -12 -44 -29 -61 -37 -16 -8 -48 -26 -70 -41
-22 -14 -58 -36 -80 -48 -22 -12 -47 -26 -55 -31 -28 -18 -145 -85 -150 -85
-3 0 -25 -14 -50 -30 -25 -16 -48 -28 -52 -27 -5 1 -8 -2 -8 -8 0 -5 -9 -10
-20 -10 -11 0 -20 -4 -20 -8 0 -4 -19 -18 -42 -30 -24 -12 -52 -28 -63 -34
-48 -31 -149 -90 -205 -120 -19 -10 -60 -34 -90 -52 -30 -19 -58 -32 -62 -30
-3 2 -8 1 -10 -4 -4 -11 -81 -57 -90 -54 -5 1 -8 -3 -8 -8 0 -6 -11 -15 -23
-19 -13 -5 -55 -28 -93 -52 -38 -23 -75 -42 -81 -42 -7 0 -13 -3 -13 -7 0 -4
-28 -22 -62 -40 -35 -18 -81 -45 -103 -60 -22 -15 -60 -37 -85 -50 -25 -12
-55 -28 -67 -34 -13 -6 -23 -14 -23 -18 0 -5 -5 -8 -11 -8 -6 0 -29 -12 -52
-27 -23 -16 -64 -39 -92 -53 -27 -14 -52 -28 -55 -31 -11 -13 -90 -59 -90 -52
0 3 -11 -4 -24 -16 -13 -12 -31 -23 -39 -25 -8 -1 -22 -8 -31 -15 -8 -7 -30
-21 -48 -30 -18 -10 -62 -35 -98 -56 -36 -21 -94 -54 -130 -73 -36 -19 -67
-38 -70 -42 -9 -11 -145 -85 -152 -82 -5 1 -8 -2 -8 -8 0 -5 -7 -10 -15 -10
-8 0 -15 -4 -15 -8 0 -5 -24 -21 -52 -35 -29 -15 -71 -38 -93 -52 -68 -42
-120 -69 -127 -67 -5 1 -8 -1 -8 -6 0 -4 -21 -19 -47 -32 -27 -14 -50 -28 -53
-31 -3 -3 -30 -19 -60 -36 -30 -16 -74 -42 -97 -56 -24 -15 -45 -27 -48 -27
-3 0 -34 -17 -68 -38 -108 -68 -222 -132 -227 -129 -3 1 -16 -8 -30 -20 -13
-13 -29 -23 -36 -23 -6 0 -17 -7 -24 -15 -7 -8 -16 -13 -20 -10 -5 3 -11 1
-15 -5 -3 -6 -39 -28 -78 -51 -40 -22 -79 -44 -87 -49 -8 -4 -40 -23 -70 -41
-30 -17 -71 -41 -90 -52 -19 -11 -48 -28 -65 -38 -16 -10 -40 -23 -53 -29 -13
-6 -43 -24 -68 -41 -24 -16 -44 -27 -44 -23 0 4 -8 0 -17 -8 -23 -19 -117 -73
-122 -69 -2 1 -7 -2 -10 -7 -3 -5 -32 -24 -64 -41 -33 -18 -99 -56 -148 -86
-50 -30 -94 -55 -98 -55 -5 0 -14 -7 -21 -15 -7 -8 -21 -15 -31 -15 -11 0 -19
-5 -19 -10 0 -6 -8 -14 -17 -17 -10 -4 -35 -17 -55 -30 -21 -13 -38 -20 -38
-16 0 5 -4 3 -8 -3 -4 -5 -27 -22 -52 -36 -25 -14 -74 -42 -110 -63 -36 -20
-81 -46 -100 -57 -19 -11 -40 -24 -46 -29 -17 -13 -137 -79 -156 -86 -10 -3
-18 -9 -18 -14 0 -5 -4 -9 -9 -9 -4 0 -35 -16 -67 -35 -32 -19 -63 -36 -69
-37 -5 -1 -18 -9 -27 -17 -9 -9 -54 -36 -100 -60 -46 -24 -85 -47 -88 -50 -6
-7 -32 -22 -91 -53 -21 -11 -42 -24 -45 -29 -3 -5 -10 -7 -15 -4 -5 4 -9 3 -9
-2 0 -4 -26 -21 -58 -38 -31 -16 -59 -33 -62 -36 -3 -3 -27 -18 -55 -33 -54
-30 -193 -111 -315 -184 -41 -24 -81 -45 -87 -45 -7 0 -13 -3 -13 -7 0 -3 -19
-17 -43 -30 -23 -13 -44 -26 -47 -29 -3 -3 -36 -22 -74 -41 -38 -19 -78 -43
-88 -52 -10 -10 -23 -18 -28 -18 -6 0 -51 -24 -99 -54 -49 -30 -92 -52 -95
-48 -3 3 -6 0 -6 -7 0 -7 -4 -10 -9 -7 -5 4 -11 2 -13 -2 -3 -8 -154 -102
-164 -102 -3 0 -25 -14 -50 -30 -24 -17 -44 -27 -44 -23 0 4 -4 3 -8 -3 -4 -5
-38 -27 -77 -48 -38 -22 -78 -46 -87 -54 -10 -8 -18 -11 -18 -6 0 5 -6 2 -13
-6 -7 -8 -26 -22 -42 -31 -87 -45 -172 -93 -185 -104 -8 -7 -46 -29 -85 -50
-38 -20 -77 -43 -85 -49 -8 -7 -28 -18 -45 -26 -16 -8 -59 -32 -95 -54 -65
-39 -273 -160 -340 -198 -19 -11 -39 -24 -45 -29 -7 -7 -10 -1650 -11 -4889
l0 -4878 35 -17 c20 -9 38 -16 40 -15 2 1 7 -2 10 -8 8 -12 147 -92 159 -92 6
0 12 -4 14 -8 4 -10 354 -212 367 -212 6 0 11 -3 11 -8 0 -4 17 -16 38 -27 20
-11 69 -38 107 -61 67 -40 93 -55 195 -112 25 -14 90 -52 144 -85 55 -32 109
-63 120 -68 24 -10 59 -31 66 -40 3 -3 34 -22 70 -41 36 -20 100 -57 143 -82
43 -25 81 -46 85 -46 5 0 14 -6 20 -12 7 -7 41 -29 76 -48 35 -19 104 -59 153
-87 50 -29 95 -53 102 -53 6 0 11 -4 11 -9 0 -5 13 -14 30 -21 16 -7 30 -17
30 -23 0 -6 3 -7 7 -4 3 4 15 0 25 -10 10 -9 18 -13 18 -10 0 3 24 -10 52 -29
29 -19 58 -34 65 -34 7 0 13 -4 13 -8 0 -5 17 -17 38 -28 20 -10 54 -29 75
-42 20 -12 37 -20 37 -17 0 3 10 -3 22 -14 11 -11 25 -18 30 -15 4 3 8 1 8 -4
0 -4 33 -26 72 -47 40 -21 96 -53 123 -70 28 -17 57 -35 65 -38 8 -4 29 -16
45 -26 30 -20 72 -44 135 -77 19 -11 39 -25 43 -32 5 -7 12 -10 18 -7 5 4 9 1
9 -6 0 -7 3 -10 6 -7 3 4 22 -5 41 -18 20 -13 42 -24 49 -24 7 0 14 -4 16 -8
4 -11 171 -107 181 -104 4 1 7 -3 7 -9 0 -5 4 -7 10 -4 6 3 10 2 10 -2 0 -5 9
-13 19 -18 11 -6 43 -24 73 -42 29 -17 57 -32 62 -31 5 0 12 -4 15 -9 8 -12
174 -108 183 -106 3 1 12 -4 18 -12 7 -8 18 -15 25 -15 8 0 15 -4 17 -8 2 -4
23 -19 48 -34 25 -14 73 -41 107 -61 35 -20 63 -33 63 -29 0 4 4 2 8 -5 7 -11
297 -183 308 -183 3 0 17 -8 32 -19 46 -31 127 -76 135 -73 4 1 7 -2 7 -7 0
-5 14 -14 30 -21 17 -7 30 -17 30 -23 0 -6 3 -7 7 -4 3 4 13 1 22 -7 9 -8 22
-16 30 -18 8 -2 22 -9 30 -16 9 -7 21 -13 26 -14 6 -1 19 -10 29 -20 11 -10
28 -18 37 -18 10 0 19 -4 21 -8 3 -8 185 -116 313 -187 28 -16 74 -43 102 -61
29 -19 53 -30 53 -26 0 4 4 3 8 -3 4 -5 18 -16 32 -24 204 -117 418 -243 427
-251 7 -6 13 -8 13 -5 0 3 17 -6 37 -20 21 -14 41 -25 45 -25 4 0 27 -14 51
-30 25 -17 47 -30 50 -30 3 0 46 -25 96 -55 50 -30 93 -55 96 -55 2 0 29 -16
60 -35 30 -20 55 -32 55 -28 0 4 4 3 8 -3 4 -7 23 -21 42 -31 19 -11 113 -65
208 -121 94 -55 172 -99 172 -96 0 2 9 -4 20 -14 12 -9 24 -17 28 -17 4 0 21
-10 38 -22 17 -12 34 -20 38 -16 3 3 6 1 6 -5 0 -7 4 -12 9 -12 5 0 46 -22 91
-50 45 -27 83 -50 85 -50 2 0 41 -22 87 -50 46 -27 87 -50 91 -50 4 0 13 -5
20 -11 22 -19 177 -107 177 -101 0 4 4 2 8 -3 7 -11 198 -125 209 -125 3 0 21
-11 40 -26 18 -14 33 -22 33 -19 0 4 7 -1 16 -9 8 -9 20 -14 25 -11 5 4 9 2 9
-3 0 -5 15 -16 33 -23 17 -7 40 -21 51 -30 10 -10 32 -23 50 -30 17 -7 33 -16
37 -21 3 -4 30 -21 60 -36 29 -15 72 -39 94 -53 22 -14 67 -41 100 -59 33 -18
88 -51 123 -72 34 -21 62 -34 62 -30 0 4 4 2 8 -4 4 -6 27 -22 52 -35 25 -14
64 -37 87 -52 24 -15 45 -27 48 -27 2 0 34 -18 70 -40 l65 -40 86 53 c122 74
157 95 174 103 8 4 33 19 55 33 22 14 49 31 60 37 17 9 80 47 160 97 11 6 23
16 26 20 3 5 8 7 10 6 2 -2 30 12 62 31 33 19 84 49 114 66 30 17 62 37 71 45
9 8 20 15 25 16 15 4 152 88 155 95 2 5 7 6 12 3 4 -3 13 2 20 10 7 8 16 15
21 15 8 0 139 79 149 90 3 3 19 12 35 20 46 23 159 93 166 103 3 5 10 9 15 9
17 1 54 21 54 30 0 4 5 8 11 8 6 0 52 25 102 56 51 31 112 68 137 82 25 14 81
48 125 75 44 27 100 61 125 75 25 14 59 33 75 42 67 38 140 85 143 92 2 4 10
8 17 8 7 0 44 20 82 45 37 25 74 45 81 45 6 0 12 5 12 10 0 6 6 10 13 10 7 0
23 9 35 20 12 12 22 18 22 15 0 -3 19 7 43 23 23 15 128 79 232 141 105 61
197 116 205 121 108 66 182 110 185 110 4 0 365 216 415 248 14 9 29 17 33 17
4 0 11 6 16 13 5 8 10 13 12 12 8 -4 59 24 59 32 0 4 4 8 9 8 12 0 134 71 142
83 3 5 8 7 10 6 2 -2 15 4 29 13 14 8 77 46 140 84 63 37 118 72 121 77 3 5
10 9 15 9 16 0 80 36 93 52 8 9 18 16 23 16 12 0 182 103 186 113 2 4 10 7 17
7 7 0 37 16 67 35 29 19 61 38 70 41 10 3 18 10 18 15 0 5 4 9 9 9 9 0 332
189 341 199 3 3 25 17 50 30 25 13 59 33 75 45 17 12 50 32 75 45 25 13 52 30
61 37 8 8 21 14 27 14 6 0 17 6 24 13 7 6 31 21 53 32 22 11 47 26 55 33 16
14 180 112 187 112 3 0 39 21 81 47 244 149 285 173 293 173 5 0 9 5 9 12 0 6
3 9 6 5 3 -3 36 14 72 37 37 23 101 62 142 86 41 24 77 47 78 52 2 4 8 8 14 8
6 0 49 23 97 52 185 112 257 154 284 167 15 8 27 18 27 23 0 4 4 8 9 8 14 0
134 71 143 84 5 7 8 7 8 1 0 -7 3 -7 8 0 9 13 58 43 95 58 15 6 27 15 27 19 0
4 6 8 13 8 7 0 23 9 35 20 12 11 24 20 27 20 6 0 45 21 87 48 15 9 64 39 110
66 46 27 242 144 436 260 194 116 361 216 371 221 10 6 26 17 35 24 9 7 16 10
16 5 0 -5 4 -4 8 1 4 6 39 29 77 52 l70 41 -2 2513 c0 1383 -2 2514 -3 2514
-1 0 -3 1062 -5 2360 -1 1298 -3 2365 -4 2371 0 6 -18 19 -38 30 -21 10 -51
28 -68 39 -16 11 -39 25 -50 32 -11 6 -109 65 -217 130 -109 65 -206 123 -215
128 -78 44 -273 161 -295 176 -15 11 -30 19 -32 19 -11 0 -141 83 -148 94 -4
6 -8 8 -8 4 0 -9 -103 52 -108 64 -2 4 -8 8 -14 8 -6 0 -38 17 -72 38 -93 56
-100 61 -116 68 -8 4 -57 34 -108 66 -51 32 -95 58 -98 58 -3 0 -25 14 -49 30
-24 17 -46 30 -48 30 -3 0 -68 38 -145 85 -77 47 -143 85 -147 85 -3 0 -21 11
-39 25 -18 14 -36 25 -40 25 -3 0 -30 15 -59 34 -28 18 -176 107 -327 197
-151 90 -276 167 -278 171 -2 4 -12 8 -21 8 -10 0 -30 11 -45 25 -14 13 -30
25 -34 26 -6 1 -143 79 -192 109 -104 63 -279 167 -292 172 -10 4 -18 11 -18
16 0 5 -6 9 -13 9 -8 0 -33 13 -58 30 -24 16 -64 41 -89 55 -72 40 -125 72
-130 78 -3 3 -16 11 -29 18 -13 8 -40 23 -60 35 -20 11 -45 25 -56 31 -11 7
-46 28 -77 49 -31 20 -59 37 -62 37 -11 0 -141 83 -144 91 -2 5 -8 7 -13 3 -5
-3 -12 2 -15 10 -3 9 -9 14 -13 12 -3 -2 -22 6 -43 17 -137 82 -195 117 -209
129 -9 7 -20 14 -26 15 -5 1 -46 25 -91 52 -45 28 -85 51 -90 51 -4 0 -17 8
-28 18 -11 9 -41 28 -66 40 -25 13 -55 31 -65 40 -10 10 -25 18 -33 20 -7 2
-36 18 -64 36 -113 72 -136 86 -141 86 -4 0 -26 14 -50 30 -24 17 -46 30 -49
30 -3 0 -30 16 -60 35 -30 19 -58 35 -61 35 -3 0 -28 16 -55 35 -28 19 -50 32
-50 29 0 -4 -7 -1 -15 6 -8 7 -28 20 -43 29 -16 9 -61 36 -101 61 -41 25 -94
56 -120 70 -25 14 -72 42 -104 63 -31 20 -59 37 -61 37 -4 0 -250 147 -286
170 -8 6 -34 20 -57 32 -24 12 -43 26 -43 30 0 4 -4 8 -10 8 -10 0 -111 59
-120 70 -3 4 -13 9 -22 13 -9 3 -59 32 -110 63 -51 31 -113 68 -138 82 -25 14
-69 40 -98 59 -29 18 -55 33 -57 33 -9 0 -90 54 -93 63 -2 4 -10 7 -17 7 -8 0
-21 7 -29 16 -9 8 -16 13 -16 10 0 -8 -113 65 -122 78 -4 6 -8 8 -8 3 0 -4
-18 4 -40 18 -22 14 -44 25 -50 25 -5 0 -10 5 -10 10 0 6 -6 10 -13 10 -7 0
-23 9 -35 20 -12 12 -22 18 -22 16 0 -6 -152 84 -160 94 -3 4 -23 15 -45 25
-22 10 -47 24 -55 31 -8 6 -33 23 -55 35 -23 13 -78 47 -124 74 -46 28 -98 59
-117 70 -117 68 -374 222 -399 239 -16 12 -32 21 -35 21 -6 0 -83 47 -90 54
-12 14 -48 8 -80 -13z"/>
</g>
</svg>
